HIERARCHY
ROOT Junyuan_V1:Solving:Hips
{
	OFFSET 0.000000 0.000000 0.000000
	CHANNELS 6 Xposition Yposition Zposition Xrotation Yrotation Zrotation
	JOINT Junyuan_V1:Solving:Spine
	{
		OFFSET 0.000000 -12.985630 2.462989
		CHANNELS 6 Xposition Yposition Zposition Xrotation Yrotation Zrotation
		JOINT Junyuan_V1:Solving:Spine1
		{
			OFFSET 0.000000 -8.692390 1.532706
			CHANNELS 6 Xposition Yposition Zposition Xrotation Yrotation Zrotation
			JOINT Junyuan_V1:Solving:Spine2
			{
				OFFSET 0.000000 -8.792902 0.769282
				CHANNELS 6 Xposition Yposition Zposition Xrotation Yrotation Zrotation
				JOINT Junyuan_V1:Solving:Spine3
				{
					OFFSET 0.000000 -8.826483 0.000000
					CHANNELS 6 Xposition Yposition Zposition Xrotation Yrotation Zrotation
					JOINT Junyuan_V1:Solving:Neck
					{
						OFFSET 0.000000 -11.348343 -1.134832
						CHANNELS 6 Xposition Yposition Zposition Xrotation Yrotation Zrotation
						JOINT Junyuan_V1:Solving:Neck1
						{
							OFFSET 0.000000 -7.624485 -0.667056
							CHANNELS 6 Xposition Yposition Zposition Xrotation Yrotation Zrotation
							JOINT Junyuan_V1:Solving:Head
							{
								OFFSET 0.000000 -7.537346 -1.329035
								CHANNELS 6 Xposition Yposition Zposition Xrotation Yrotation Zrotation
								JOINT Junyuan_V1:Solving:HeadEnd
								{
									OFFSET 0.000000 -9.728073 0.000003
									CHANNELS 6 Xposition Yposition Zposition Xrotation Yrotation Zrotation
									End Site
									{
										OFFSET 0.000000 -9.728081 0.000002
									}
								}
							}
						}
					}
					JOINT Junyuan_V1:Solving:RightShoulder
					{
						OFFSET 0.000000 -8.105961 -5.517343
						CHANNELS 6 Xposition Yposition Zposition Xrotation Yrotation Zrotation
						JOINT Junyuan_V1:Solving:RightArm
						{
							OFFSET -18.898018 -0.000008 0.000000
							CHANNELS 6 Xposition Yposition Zposition Xrotation Yrotation Zrotation
							JOINT Junyuan_V1:Solving:RightForeArm
							{
								OFFSET -28.740982 -0.000008 0.000000
								CHANNELS 6 Xposition Yposition Zposition Xrotation Yrotation Zrotation
								JOINT Junyuan_V1:Solving:RightHand
								{
									OFFSET -20.953522 -0.000008 0.000000
									CHANNELS 6 Xposition Yposition Zposition Xrotation Yrotation Zrotation
									JOINT Junyuan_V1:Solving:RightHandThumb1
									{
										OFFSET -4.628059 2.916191 -3.441377
										CHANNELS 6 Xposition Yposition Zposition Xrotation Yrotation Zrotation
										End Site
										{
											OFFSET -6.617699 -0.000004 -6.678891
										}
									}
									JOINT Junyuan_V1:Solving:RightHandMiddle1
									{
										OFFSET -12.341492 -0.000004 0.079112
										CHANNELS 6 Xposition Yposition Zposition Xrotation Yrotation Zrotation
										End Site
										{
											OFFSET -9.402214 -0.000004 0.000000
										}
									}
								}
							}
						}
					}
					JOINT Junyuan_V1:Solving:LeftShoulder
					{
						OFFSET 0.000000 -8.105961 -5.517343
						CHANNELS 6 Xposition Yposition Zposition Xrotation Yrotation Zrotation
						JOINT Junyuan_V1:Solving:LeftArm
						{
							OFFSET 18.898018 -0.000008 0.000000
							CHANNELS 6 Xposition Yposition Zposition Xrotation Yrotation Zrotation
							JOINT Junyuan_V1:Solving:LeftForeArm
							{
								OFFSET 28.740982 -0.000008 0.000000
								CHANNELS 6 Xposition Yposition Zposition Xrotation Yrotation Zrotation
								JOINT Junyuan_V1:Solving:LeftHand
								{
									OFFSET 20.953522 -0.000008 0.000000
									CHANNELS 6 Xposition Yposition Zposition Xrotation Yrotation Zrotation
									JOINT Junyuan_V1:Solving:LeftHandThumb1
									{
										OFFSET 4.628059 2.916191 -3.441377
										CHANNELS 6 Xposition Yposition Zposition Xrotation Yrotation Zrotation
										End Site
										{
											OFFSET 6.617699 -0.000004 -6.678891
										}
									}
									JOINT Junyuan_V1:Solving:LeftHandMiddle1
									{
										OFFSET 12.341492 -0.000004 0.079112
										CHANNELS 6 Xposition Yposition Zposition Xrotation Yrotation Zrotation
										End Site
										{
											OFFSET 9.402214 -0.000004 0.000000
										}
									}
								}
							}
						}
					}
				}
			}
		}
	}
	JOINT Junyuan_V1:Solving:RightUpLeg
	{
		OFFSET -11.141669 0.000000 0.000000
		CHANNELS 6 Xposition Yposition Zposition Xrotation Yrotation Zrotation
		JOINT Junyuan_V1:Solving:RightLeg
		{
			OFFSET 0.000000 42.399242 -0.000006
			CHANNELS 6 Xposition Yposition Zposition Xrotation Yrotation Zrotation
			JOINT Junyuan_V1:Solving:RightFoot
			{
				OFFSET 0.000000 39.245022 -0.000006
				CHANNELS 6 Xposition Yposition Zposition Xrotation Yrotation Zrotation
				JOINT Junyuan_V1:Solving:RightForeFoot
				{
					OFFSET 0.000000 3.261009 -0.000000
					CHANNELS 6 Xposition Yposition Zposition Xrotation Yrotation Zrotation
					JOINT Junyuan_V1:Solving:RightToeBase
					{
						OFFSET 0.000000 0.000000 -12.771147
						CHANNELS 6 Xposition Yposition Zposition Xrotation Yrotation Zrotation
						JOINT Junyuan_V1:Solving:RightToeBaseEnd
						{
							OFFSET 0.000000 0.000000 -4.049008
							CHANNELS 6 Xposition Yposition Zposition Xrotation Yrotation Zrotation
							End Site
							{
								OFFSET 0.000000 -4.049011 0.000000
							}
						}
					}
				}
			}
		}
	}
	JOINT Junyuan_V1:Solving:LeftUpLeg
	{
		OFFSET 11.141669 0.000000 0.000000
		CHANNELS 6 Xposition Yposition Zposition Xrotation Yrotation Zrotation
		JOINT Junyuan_V1:Solving:LeftLeg
		{
			OFFSET 0.000000 42.399242 -0.000006
			CHANNELS 6 Xposition Yposition Zposition Xrotation Yrotation Zrotation
			JOINT Junyuan_V1:Solving:LeftFoot
			{
				OFFSET 0.000000 39.245022 -0.000006
				CHANNELS 6 Xposition Yposition Zposition Xrotation Yrotation Zrotation
				JOINT Junyuan_V1:Solving:LeftForeFoot
				{
					OFFSET 0.000000 3.261009 -0.000000
					CHANNELS 6 Xposition Yposition Zposition Xrotation Yrotation Zrotation
					JOINT Junyuan_V1:Solving:LeftToeBase
					{
						OFFSET 0.000000 0.000000 -12.771147
						CHANNELS 6 Xposition Yposition Zposition Xrotation Yrotation Zrotation
						JOINT Junyuan_V1:Solving:LeftToeBaseEnd
						{
							OFFSET 0.000000 0.000000 -2.960146
							CHANNELS 6 Xposition Yposition Zposition Xrotation Yrotation Zrotation
							End Site
							{
								OFFSET 0.000000 -2.960144 0.000002
							}
						}
					}
				}
			}
		}
	}
}
MOTION
Frames: 6
Frame Time: 0.041667
19.933435 19.707609 -90.290001 89.456798 168.585284 0.979188 0.000007 -12.985644 2.462988 7.907996 0.232623 -1.971360 0.000002 -8.692404 1.532701 -1.157181 -0.056680 0.217783 -0.000001 -8.792906 0.769282 -5.115168 1.583012 -0.522165 -0.000000 -8.826503 0.000002 -1.410590 0.322411 -1.184182 -0.000003 -11.348348 -1.134834 -0.290576 2.427026 3.357286 0.000001 -7.624484 -0.667051 3.977631 3.131706 -0.358770 -0.000001 -7.537311 -1.329040 12.498410 0.268663 -0.818402 -0.000000 -9.728119 0.000013 0.000002 0.000000 -0.000000 -0.000001 -8.105965 -5.517345 -0.000004 18.441241 13.400584 -18.898012 0.000005 0.000005 0.251066 -34.384166 -89.532298 -28.740969 -0.000006 0.000009 6.866438 -31.686504 3.619290 -20.953524 -0.000009 -0.000001 0.009572 -2.639328 0.207824 -4.628076 2.916202 -3.441372 0.000004 -0.000002 -0.000002 -12.341477 0.000002 0.079112 0.000001 -0.000002 -0.000001 -0.000000 -8.105968 -5.517345 -0.000005 -12.022547 -13.540205 18.898016 -0.000027 0.000003 -4.521440 45.049284 96.354100 28.740982 -0.000010 -0.000002 4.753108 25.168988 -2.025252 20.953510 -0.000000 -0.000000 -0.518690 -2.603695 -11.270730 4.628073 2.916196 -3.441376 0.000003 0.000000 -0.000003 12.341460 -0.000002 0.079108 0.000005 -0.000003 -0.000001 -11.141657 -0.000022 -0.000001 1.873802 8.537151 -2.443590 0.000008 42.399246 -0.000004 7.998187 -0.000000 0.000000 0.000004 39.245022 -0.000004 -3.213835 -7.565046 -4.954364 0.000005 3.261009 0.000007 -0.000001 -0.000001 -0.000000 -0.000001 0.000014 -12.771150 5.778516 -0.000001 -0.000001 -0.000001 -0.000007 -4.049014 0.000000 -0.000004 -0.000001 11.141673 -0.000009 0.000000 -3.823534 -4.487377 -1.078175 -0.000001 42.399250 -0.000012 10.078877 0.000002 -0.000001 -0.000003 39.245010 0.000001 -1.245846 1.074426 -19.792133 0.000000 3.261010 0.000006 0.000001 -0.000001 0.000002 -0.000003 0.000003 -12.771145 -23.389906 -0.000004 0.000002 -0.000002 -0.000007 -2.960148 0.000003 0.000001 0.000000 
19.972464 19.756523 -90.289413 89.423698 168.438093 0.991282 0.000003 -12.985661 2.462996 7.911047 0.226341 -2.050156 -0.000001 -8.692381 1.532707 -1.149856 -0.052219 0.192550 0.000003 -8.792894 0.769279 -5.111010 1.600212 -0.535865 0.000002 -8.826504 -0.000001 -1.393513 0.324583 -1.193393 0.000001 -11.348330 -1.134832 -0.236429 2.399936 3.362132 0.000003 -7.624508 -0.667048 3.964768 3.033102 -0.338867 0.000004 -7.537349 -1.329033 12.514546 0.258794 -0.800304 0.000001 -9.728096 0.000001 0.000003 0.000000 -0.000000 0.000002 -8.105957 -5.517343 -0.000005 18.366604 13.222007 -18.898022 -0.000005 -0.000001 0.187700 -33.819204 -89.070810 -28.740965 -0.000001 0.000002 6.344074 -31.702627 3.343775 -20.953510 -0.000017 0.000006 -0.023668 -2.645043 -0.512869 -4.628086 2.916194 -3.441373 -0.000002 0.000002 -0.000004 -12.341476 -0.000009 0.079109 0.000003 0.000005 -0.000000 0.000003 -8.105961 -5.517342 -0.000003 -12.008022 -13.515936 18.898006 -0.000006 0.000007 -4.894314 44.954533 96.540038 28.740976 -0.000006 -0.000001 4.603536 24.798168 -1.934260 20.953537 -0.000005 -0.000002 -0.571402 -2.609618 -12.355059 4.628050 2.916193 -3.441381 0.000002 -0.000009 -0.000003 12.341494 0.000001 0.079109 0.000001 -0.000002 0.000002 -11.141663 -0.000038 0.000004 1.868443 8.745282 -2.470438 0.000002 42.399235 -0.000005 7.927920 0.000000 -0.000000 0.000002 39.245022 -0.000005 -3.186611 -7.648965 -4.962248 -0.000002 3.261009 0.000001 -0.000001 0.000001 -0.000000 0.000002 -0.000002 -12.771141 5.825230 0.000001 -0.000000 0.000001 0.000008 -4.049016 0.000002 0.000001 -0.000001 11.141669 -0.000033 0.000009 -3.990047 -4.317943 -1.096010 -0.000000 42.399246 -0.000014 10.232773 0.000001 -0.000001 -0.000008 39.245014 -0.000010 -1.240955 1.065830 -19.815931 -0.000002 3.261009 0.000002 0.000001 -0.000003 0.000002 0.000000 -0.000006 -12.771147 -23.317327 -0.000003 0.000004 -0.000000 -0.000008 -2.960143 -0.000001 0.000002 -0.000003 
20.009964 19.803246 -90.286156 89.383209 168.337662 0.960564 0.000003 -12.985630 2.462990 7.898234 0.242132 -2.094220 0.000002 -8.692373 1.532704 -1.153348 -0.055634 0.186193 -0.000002 -8.792915 0.769282 -5.095968 1.561186 -0.531083 -0.000000 -8.826495 0.000002 -1.364840 0.312369 -1.215088 -0.000001 -11.348345 -1.134847 -0.197140 2.369872 3.370745 0.000003 -7.624442 -0.667052 3.977545 2.951530 -0.341912 0.000003 -7.537348 -1.329037 12.544942 0.251736 -0.775317 0.000001 -9.728065 0.000007 0.000001 -0.000000 -0.000000 -0.000001 -8.105976 -5.517357 -0.000002 18.312980 12.907362 -18.898014 0.000008 -0.000001 0.495793 -33.915560 -88.124849 -28.741001 -0.000010 -0.000001 4.844375 -32.431603 2.602422 -20.953518 -0.000006 -0.000006 -0.043144 -2.019498 -1.224077 -4.628085 2.916197 -3.441375 -0.000002 0.000005 -0.000003 -12.341476 0.000001 0.079105 -0.000009 0.000001 -0.000000 0.000000 -8.105988 -5.517356 -0.000002 -11.979522 -13.477514 18.898018 -0.000011 0.000001 -5.165818 44.859460 96.550762 28.740988 -0.000005 -0.000001 4.492247 24.396300 -1.858664 20.953505 0.000004 -0.000000 -0.479516 -2.090580 -12.921634 4.628038 2.916194 -3.441385 -0.000004 -0.000002 0.000002 12.341473 -0.000004 0.079104 0.000002 0.000001 0.000004 -11.141662 0.000004 -0.000001 1.817648 8.780357 -2.456070 -0.000000 42.399242 -0.000004 7.904361 -0.000000 0.000000 -0.000006 39.245033 -0.000005 -3.235681 -7.590908 -5.030701 0.000000 3.261009 0.000003 -0.000000 0.000002 -0.000000 -0.000005 0.000012 -12.771153 5.951235 0.000000 0.000000 -0.000002 -0.000008 -4.049010 0.000000 -0.000002 -0.000000 11.141672 -0.000005 0.000005 -4.143171 -4.088211 -1.057794 -0.000002 42.399261 -0.000008 10.368150 0.000001 -0.000001 -0.000010 39.245022 -0.000009 -1.221904 0.927159 -19.856562 -0.000002 3.261009 0.000003 0.000000 -0.000001 -0.000001 0.000000 0.000005 -12.771135 -23.280046 -0.000003 -0.000001 -0.000001 -0.000009 -2.960144 -0.000003 -0.000001 -0.000002 
20.040134 19.854122 -90.283310 89.355410 168.169093 0.938586 0.000005 -12.985624 2.462985 7.896412 0.248971 -2.171965 -0.000001 -8.692410 1.532701 -1.146661 -0.055398 0.181958 -0.000001 -8.792910 0.769283 -5.087833 1.557516 -0.535225 -0.000000 -8.826491 0.000001 -1.340702 0.315993 -1.228791 0.000001 -11.348348 -1.134834 -0.150989 2.323919 3.370779 0.000002 -7.624456 -0.667051 3.982229 2.897855 -0.306814 -0.000005 -7.537351 -1.329041 12.587242 0.244308 -0.734953 -0.000001 -9.728073 -0.000009 0.000002 -0.000000 0.000000 0.000000 -8.105972 -5.517347 -0.000010 18.221183 12.773477 -18.898005 0.000015 0.000003 0.382945 -33.257325 -87.692997 -28.740969 -0.000002 0.000013 4.517495 -32.442453 2.427005 -20.953516 0.000011 -0.000003 -0.079743 -1.945195 -2.348168 -4.628095 2.916207 -3.441367 -0.000003 -0.000005 -0.000007 -12.341495 0.000005 0.079118 -0.000002 -0.000004 -0.000003 0.000000 -8.105988 -5.517346 -0.000008 -11.910771 -13.337441 18.898008 0.000019 0.000005 -5.182958 45.450766 96.138328 28.740984 -0.000004 0.000005 3.633419 24.365189 -1.500641 20.953516 0.000008 0.000000 -0.338854 -1.451712 -13.140011 4.628093 2.916212 -3.441367 0.000002 -0.000005 0.000003 12.341499 0.000001 0.079115 -0.000000 -0.000004 -0.000000 -11.141670 0.000015 0.000003 1.812280 8.968871 -2.441924 0.000004 42.399254 -0.000009 7.839619 0.000000 -0.000000 -0.000004 39.245018 -0.000007 -3.247200 -7.631709 -5.118762 -0.000004 3.261009 0.000004 0.000001 -0.000001 0.000001 -0.000004 0.000017 -12.771154 6.005154 0.000001 0.000001 0.000000 -0.000008 -4.049010 -0.000000 -0.000002 0.000001 11.141668 -0.000009 -0.000002 -4.274022 -3.849727 -1.027753 -0.000002 42.399250 -0.000010 10.460306 -0.000002 -0.000001 -0.000008 39.245033 -0.000003 -1.185842 0.853719 -19.853244 0.000001 3.261010 -0.000008 0.000000 -0.000003 0.000003 -0.000002 0.000004 -12.771145 -23.260894 -0.000006 0.000001 0.000000 -0.000000 -2.960145 -0.000001 -0.000000 -0.000004 
20.074617 19.903927 -90.282799 89.360690 167.986836 0.904140 -0.000003 -12.985621 2.462985 7.935030 0.244387 -2.233084 -0.000002 -8.692400 1.532711 -1.140412 -0.054933 0.182388 -0.000003 -8.792883 0.769278 -5.070758 1.563602 -0.542455 0.000003 -8.826461 -0.000002 -1.321351 0.322427 -1.239651 0.000000 -11.348318 -1.134838 -0.117227 2.280342 3.394083 0.000005 -7.624493 -0.667065 3.999502 2.850757 -0.305195 -0.000004 -7.537323 -1.329031 12.617233 0.240067 -0.710527 0.000004 -9.728104 0.000006 -0.000002 -0.000000 0.000000 -0.000001 -8.105930 -5.517345 -0.000006 18.130875 12.512819 -18.898020 0.000005 -0.000001 0.625134 -33.474863 -86.834060 -28.740963 -0.000010 0.000004 3.566487 -32.982526 1.943306 -20.953537 -0.000004 -0.000004 -0.072413 -1.504463 -2.755989 -4.628061 2.916205 -3.441361 -0.000004 -0.000000 -0.000003 -12.341487 0.000008 0.079123 -0.000001 -0.000001 -0.000003 0.000003 -8.105949 -5.517345 -0.000005 -11.885085 -13.206451 18.898010 0.000004 0.000001 -5.180068 45.759453 95.657305 28.740971 -0.000005 0.000005 3.082147 24.323939 -1.270542 20.953520 -0.000007 0.000003 -0.150933 -0.669333 -12.707744 4.628056 2.916199 -3.441370 0.000005 0.000003 -0.000004 12.341475 -0.000000 0.079107 0.000000 0.000000 -0.000001 -11.141668 0.000011 -0.000003 1.842357 9.079552 -2.434269 0.000001 42.399239 -0.000007 7.763039 -0.000000 0.000000 -0.000004 39.245041 -0.000009 -3.243060 -7.577893 -5.170869 0.000003 3.261009 -0.000000 -0.000001 -0.000001 -0.000000 -0.000002 0.000013 -12.771146 6.039414 0.000000 0.000000 -0.000000 0.000000 -4.049011 0.000001 -0.000001 0.000000 11.141670 -0.000011 -0.000002 -4.423396 -3.775819 -1.002979 -0.000002 42.399246 -0.000012 10.639743 -0.000002 -0.000001 -0.000000 39.245041 -0.000006 -1.126709 0.920200 -19.913101 0.000002 3.261009 0.000001 0.000000 0.000002 0.000002 0.000003 0.000003 -12.771148 -23.160424 -0.000003 0.000003 0.000000 0.000001 -2.960145 0.000001 0.000003 0.000003 
20.180136 20.034521 -90.276276 89.226183 167.723833 0.960309 0.000002 -12.985618 2.462987 7.989742 0.219580 -2.243715 -0.000000 -8.692403 1.532711 -1.143902 -0.039205 0.169571 0.000000 -8.792882 0.769284 -5.141445 1.634664 -0.619067 0.000001 -8.826535 -0.000000 -1.349815 0.329728 -1.299248 0.000002 -11.348383 -1.134825 -0.084031 2.232394 3.437365 0.000001 -7.624458 -0.667056 4.025743 2.777309 -0.283728 0.000002 -7.537377 -1.329031 12.651225 0.231919 -0.703788 -0.000000 -9.728081 0.000005 -0.000002 -0.000001 -0.000000 0.000002 -8.105949 -5.517337 -0.000006 18.008625 12.446239 -18.898018 0.000003 0.000003 0.410200 -32.906233 -86.496532 -28.740990 -0.000014 0.000007 3.606984 -32.816463 1.956631 -20.953506 0.000011 -0.000003 -0.109457 -1.667723 -3.755804 -4.628054 2.916205 -3.441359 -0.000005 -0.000002 -0.000003 -12.341460 0.000002 0.079122 -0.000002 -0.000001 0.000002 0.000000 -8.105957 -5.517338 -0.000005 -11.814828 -13.027366 18.898005 0.000006 0.000007 -5.062889 45.888756 95.063160 28.740988 -0.000005 0.000000 2.714875 24.351045 -1.120112 20.953510 -0.000005 -0.000001 0.019573 0.092529 -11.940380 4.628066 2.916206 -3.441362 0.000000 0.000002 -0.000002 12.341477 -0.000005 0.079117 0.000000 0.000007 0.000001 -11.141666 0.000015 -0.000006 1.673435 9.256672 -2.525501 0.000002 42.399258 -0.000008 7.734376 0.000000 -0.000000 0.000002 39.245033 -0.000003 -3.206813 -7.522905 -5.140027 0.000002 3.261009 0.000002 0.000000 0.000000 0.000000 -0.000002 0.000010 -12.771149 6.095267 0.000003 -0.000000 0.000000 -0.000000 -4.049006 -0.000000 -0.000002 -0.000000 11.141669 -0.000008 -0.000002 -4.876149 -3.690864 -1.085629 -0.000001 42.399254 -0.000016 10.993421 0.000001 -0.000001 -0.000003 39.245049 -0.000002 -1.126993 1.069640 -19.895848 0.000000 3.261010 0.000004 0.000000 -0.000002 0.000004 0.000001 0.000012 -12.771138 -23.063213 -0.000004 0.000005 0.000000 -0.000001 -2.960141 -0.000003 0.000001 0.000004 
